<svg width="85" height="85" viewBox="0 0 85 85" fill="none" xmlns="http://www.w3.org/2000/svg">
<rect width="85" height="85" rx="20" fill="url(#paint0_linear_341_13)"/>
<path d="M30.713 25.1813C31.6695 24.2248 31.6695 22.6739 30.713 21.7174C29.7565 20.7609 28.2056 20.7609 27.249 21.7174L20.7174 28.249C19.7609 29.2056 19.7609 30.7564 20.7174 31.713L27.249 38.2445C28.2056 39.2011 29.7565 39.2011 30.713 38.2445C31.6695 37.288 31.6695 35.7372 30.713 34.7807L28.3627 32.4304H61.6393C62.992 32.4304 64.0886 31.3338 64.0886 29.981C64.0886 28.6283 62.992 27.5316 61.6393 27.5316H28.3627L30.713 25.1813Z" fill="white"/>
<path d="M53.3758 47.7174C52.4192 48.674 52.4192 50.2246 53.3758 51.1812L55.7258 53.5316H22.4494C21.0966 53.5316 20 54.6282 20 55.9809C20 57.3336 21.0966 58.4303 22.4494 58.4303H55.7258L53.3758 60.7807C52.4192 61.7373 52.4192 63.2879 53.3758 64.2445C54.3323 65.201 55.8829 65.201 56.8395 64.2445L63.3711 57.7128C64.3277 56.7562 64.3277 55.2056 63.3711 54.2491L56.8395 47.7174C55.8829 46.7609 54.3323 46.7609 53.3758 47.7174Z" fill="white"/>
<defs>
<linearGradient id="paint0_linear_341_13" x1="0" y1="0" x2="85" y2="85" gradientUnits="userSpaceOnUse">
<stop stop-color="#4279FF"/>
<stop offset="1" stop-color="#AA56FB"/>
</linearGradient>
</defs>
</svg>
